<svg width="25" height="24" viewBox="0 0 25 24" fill="none" xmlns="http://www.w3.org/2000/svg">
<path d="M12.7679 3.6001L13.7188 3.65292L14.6578 3.8107L15.5729 4.07148L16.4528 4.43196L17.2864 4.88761L18.0631 5.43271L18.7733 6.0604L19.4079 6.76278L19.959 7.53103L20.4197 8.35547L20.7842 9.22575L21.0478 10.1309L21.2074 11.0596L21.2608 12.0001L21.2074 12.9406L21.0478 13.8693L20.7842 14.7744L20.4197 15.6447L19.959 16.4692L19.4079 17.2374L18.7733 17.9398L18.0631 18.5675L17.2864 19.1126L16.4528 19.5682L15.5729 19.9287L14.6578 20.1895L13.7188 20.3473L12.7679 20.4001L11.817 20.3473L10.8781 20.1895L9.96294 19.9287L9.08305 19.5682L8.24949 19.1126L7.47276 18.5675L6.76261 17.9398L6.12799 17.2374L5.57687 16.4692L5.11618 15.6447L4.75171 14.7744L4.48806 13.8693L4.32852 12.9406L4.27512 12.0001L4.32852 11.0596L4.48806 10.1309L4.75171 9.22575L5.11618 8.35547L5.57687 7.53103L6.12799 6.76278L6.76261 6.0604L7.47276 5.43271L8.24949 4.88761L9.08305 4.43196L9.96294 4.07148L10.8781 3.8107L11.817 3.65292L12.7679 3.6001Z" fill="#C2CCDE" fill-opacity="0.25"/>
<path d="M12.7679 3.6001L12.8234 2.60164C12.7865 2.59958 12.7494 2.59958 12.7125 2.60164L12.7679 3.6001ZM13.7188 3.65292L13.8846 2.66674C13.8481 2.66061 13.8113 2.65651 13.7743 2.65445L13.7188 3.65292ZM14.6578 3.8107L14.9318 2.84898C14.8962 2.83883 14.86 2.83067 14.8235 2.82453L14.6578 3.8107ZM15.5729 4.07148L15.952 3.14612C15.9177 3.13206 15.8827 3.11992 15.847 3.10976L15.5729 4.07148ZM16.4528 4.43196L16.9325 3.5545C16.8999 3.53668 16.8663 3.52069 16.8319 3.50661L16.4528 4.43196ZM17.2864 4.88761L17.8608 4.06907C17.8304 4.04768 17.7987 4.02801 17.766 4.01016L17.2864 4.88761ZM18.0631 5.43271L18.7254 4.68345C18.6974 4.65873 18.6681 4.6356 18.6376 4.61417L18.0631 5.43271ZM18.7733 6.0604L19.5153 5.38999C19.4902 5.36223 19.4636 5.33591 19.4355 5.31113L18.7733 6.0604ZM19.4079 6.76278L20.2204 6.17988C20.1986 6.14941 20.175 6.1202 20.1499 6.09237L19.4079 6.76278ZM19.959 7.53103L20.832 7.04323C20.8136 7.01042 20.7935 6.97867 20.7716 6.94813L19.959 7.53103ZM20.4197 8.35547L21.3421 7.96919C21.3275 7.93445 21.311 7.90056 21.2927 7.86768L20.4197 8.35547ZM20.7842 9.22575L21.7443 8.9461C21.7337 8.90987 21.7211 8.87427 21.7066 8.83947L20.7842 9.22575ZM21.0478 10.1309L22.0334 9.96162C22.027 9.92438 22.0185 9.88754 22.0079 9.85126L21.0478 10.1309ZM21.2074 11.0596L22.2058 11.0029C22.2036 10.9652 22.1993 10.9276 22.1929 10.8903L21.2074 11.0596ZM21.2608 12.0001L22.2592 12.0568C22.2613 12.019 22.2613 11.9812 22.2592 11.9434L21.2608 12.0001ZM21.2074 12.9406L22.1929 13.1099C22.1993 13.0726 22.2036 13.035 22.2058 12.9973L21.2074 12.9406ZM21.0478 13.8693L22.0079 14.1489C22.0185 14.1127 22.027 14.0758 22.0334 14.0386L21.0478 13.8693ZM20.7842 14.7744L21.7066 15.1607C21.7211 15.1259 21.7337 15.0903 21.7443 15.0541L20.7842 14.7744ZM20.4197 15.6447L21.2927 16.1325C21.311 16.0996 21.3275 16.0657 21.3421 16.031L20.4197 15.6447ZM19.959 16.4692L20.7716 17.0521C20.7935 17.0215 20.8136 16.9898 20.832 16.957L19.959 16.4692ZM19.4079 17.2374L20.1499 17.9078C20.175 17.88 20.1986 17.8508 20.2204 17.8203L19.4079 17.2374ZM18.7733 17.9398L19.4355 18.6891C19.4636 18.6643 19.4902 18.638 19.5153 18.6102L18.7733 17.9398ZM18.0631 18.5675L18.6376 19.386C18.6681 19.3646 18.6974 19.3415 18.7254 19.3167L18.0631 18.5675ZM17.2864 19.1126L17.766 19.99C17.7987 19.9722 17.8304 19.9525 17.8608 19.9311L17.2864 19.1126ZM16.4528 19.5682L16.8319 20.4936C16.8663 20.4795 16.8999 20.4635 16.9325 20.4457L16.4528 19.5682ZM15.5729 19.9287L15.847 20.8904C15.8827 20.8803 15.9177 20.8681 15.952 20.8541L15.5729 19.9287ZM14.6578 20.1895L14.8235 21.1757C14.86 21.1695 14.8962 21.1614 14.9318 21.1512L14.6578 20.1895ZM13.7188 20.3473L13.7743 21.3457C13.8113 21.3437 13.8481 21.3396 13.8846 21.3335L13.7188 20.3473ZM12.7679 20.4001L12.7125 21.3986C12.7494 21.4006 12.7865 21.4006 12.8234 21.3986L12.7679 20.4001ZM11.817 20.3473L11.6513 21.3335C11.6878 21.3396 11.7246 21.3437 11.7616 21.3457L11.817 20.3473ZM10.8781 20.1895L10.6041 21.1512C10.6397 21.1614 10.6759 21.1695 10.7124 21.1757L10.8781 20.1895ZM9.96294 19.9287L9.58384 20.8541C9.61816 20.8681 9.65323 20.8803 9.6889 20.8904L9.96294 19.9287ZM9.08305 19.5682L8.60339 20.4457C8.63599 20.4635 8.66956 20.4795 8.70394 20.4936L9.08305 19.5682ZM8.24949 19.1126L7.67505 19.9311C7.70552 19.9525 7.73717 19.9722 7.76984 19.99L8.24949 19.1126ZM7.47276 18.5675L6.81049 19.3167C6.83845 19.3415 6.86777 19.3646 6.89832 19.386L7.47276 18.5675ZM6.76261 17.9398L6.02062 18.6102C6.0457 18.638 6.07232 18.6643 6.10034 18.6891L6.76261 17.9398ZM6.12799 17.2374L5.31545 17.8203C5.3373 17.8508 5.36086 17.88 5.386 17.9078L6.12799 17.2374ZM5.57687 16.4692L4.70391 16.957C4.72224 16.9898 4.74241 17.0215 4.76432 17.0521L5.57687 16.4692ZM5.11618 15.6447L4.1938 16.031C4.20835 16.0657 4.22485 16.0996 4.24322 16.1325L5.11618 15.6447ZM4.75171 14.7744L3.79161 15.0541C3.80216 15.0903 3.81476 15.1259 3.82933 15.1607L4.75171 14.7744ZM4.48806 13.8693L3.50249 14.0386C3.50889 14.0758 3.51739 14.1127 3.52796 14.1489L4.48806 13.8693ZM4.32852 12.9406L3.33013 12.9973C3.33228 13.035 3.33656 13.0726 3.34296 13.1099L4.32852 12.9406ZM4.27512 12.0001L3.27673 11.9434C3.27459 11.9812 3.27459 12.019 3.27673 12.0568L4.27512 12.0001ZM4.32852 11.0596L3.34296 10.8903C3.33656 10.9276 3.33228 10.9652 3.33013 11.0029L4.32852 11.0596ZM4.48806 10.1309L3.52796 9.85127C3.51739 9.88754 3.50889 9.92438 3.50249 9.96162L4.48806 10.1309ZM4.75171 9.22575L3.82933 8.83947C3.81476 8.87427 3.80216 8.90987 3.79161 8.9461L4.75171 9.22575ZM5.11618 8.35547L4.24322 7.86768C4.22485 7.90056 4.20835 7.93445 4.1938 7.96919L5.11618 8.35547ZM5.57687 7.53103L4.76432 6.94813C4.74241 6.97867 4.72224 7.01042 4.70391 7.04323L5.57687 7.53103ZM6.12799 6.76278L5.386 6.09237C5.36086 6.1202 5.3373 6.14941 5.31545 6.17988L6.12799 6.76278ZM6.76261 6.0604L6.10034 5.31113C6.07232 5.33591 6.0457 5.36223 6.02062 5.38999L6.76261 6.0604ZM7.47276 5.43271L6.89831 4.61417C6.86777 4.6356 6.83845 4.65873 6.81049 4.68345L7.47276 5.43271ZM8.24949 4.88761L7.76984 4.01016C7.73717 4.02801 7.70552 4.04768 7.67505 4.06907L8.24949 4.88761ZM9.08305 4.43196L8.70394 3.50661C8.66956 3.52069 8.63599 3.53668 8.60339 3.5545L9.08305 4.43196ZM9.96294 4.07148L9.6889 3.10976C9.65323 3.11992 9.61816 3.13206 9.58384 3.14612L9.96294 4.07148ZM10.8781 3.8107L10.7124 2.82453C10.6759 2.83067 10.6397 2.83883 10.6041 2.84898L10.8781 3.8107ZM11.817 3.65292L11.7616 2.65445C11.7246 2.65651 11.6878 2.66061 11.6513 2.66674L11.817 3.65292ZM12.7125 4.59856L13.6634 4.65138L13.7743 2.65445L12.8234 2.60164L12.7125 4.59856ZM13.5531 4.63909L14.492 4.79688L14.8235 2.82453L13.8846 2.66674L13.5531 4.63909ZM14.3837 4.77242L15.2989 5.0332L15.847 3.10976L14.9318 2.84898L14.3837 4.77242ZM15.1938 4.99683L16.0737 5.35731L16.8319 3.50661L15.952 3.14612L15.1938 4.99683ZM15.9732 5.30942L16.8067 5.76507L17.766 4.01016L16.9325 3.5545L15.9732 5.30942ZM16.712 5.70616L17.4887 6.25126L18.6376 4.61417L17.8608 4.06907L16.712 5.70616ZM17.4009 6.18198L18.111 6.80967L19.4355 5.31113L18.7254 4.68345L17.4009 6.18198ZM18.0313 6.73081L18.6659 7.43319L20.1499 6.09237L19.5153 5.38999L18.0313 6.73081ZM18.5954 7.34568L19.1465 8.11393L20.7716 6.94813L20.2204 6.17988L18.5954 7.34568ZM19.0861 8.01883L19.5468 8.84327L21.2927 7.86768L20.832 7.04323L19.0861 8.01883ZM19.4973 8.74176L19.8618 9.61204L21.7066 8.83947L21.3421 7.96919L19.4973 8.74176ZM19.8241 9.50541L20.0877 10.4106L22.0079 9.85126L21.7443 8.9461L19.8241 9.50541ZM20.0623 10.3002L20.2218 11.2289L22.1929 10.8903L22.0334 9.96162L20.0623 10.3002ZM20.209 11.1163L20.2624 12.0568L22.2592 11.9434L22.2058 11.0029L20.209 11.1163ZM20.2624 11.9434L20.209 12.8839L22.2058 12.9973L22.2592 12.0568L20.2624 11.9434ZM20.2218 12.7713L20.0623 13.7L22.0334 14.0386L22.1929 13.1099L20.2218 12.7713ZM20.0877 13.5896L19.8241 14.4948L21.7443 15.0541L22.0079 14.1489L20.0877 13.5896ZM19.8618 14.3882L19.4973 15.2584L21.3421 16.031L21.7066 15.1607L19.8618 14.3882ZM19.5468 15.1569L19.0861 15.9814L20.832 16.957L21.2927 16.1325L19.5468 15.1569ZM19.1465 15.8863L18.5954 16.6545L20.2204 17.8203L20.7716 17.0521L19.1465 15.8863ZM18.6659 16.567L18.0313 17.2694L19.5153 18.6102L20.1499 17.9078L18.6659 16.567ZM18.111 17.1905L17.4009 17.8182L18.7254 19.3167L19.4355 18.6891L18.111 17.1905ZM17.4887 17.7489L16.712 18.294L17.8608 19.9311L18.6376 19.386L17.4887 17.7489ZM16.8067 18.2351L15.9732 18.6908L16.9325 20.4457L17.766 19.99L16.8067 18.2351ZM16.0737 18.6429L15.1938 19.0034L15.952 20.8541L16.8319 20.4936L16.0737 18.6429ZM15.2989 18.967L14.3837 19.2278L14.9318 21.1512L15.847 20.8904L15.2989 18.967ZM14.492 19.2033L13.5531 19.3611L13.8846 21.3335L14.8235 21.1757L14.492 19.2033ZM13.6634 19.3488L12.7125 19.4016L12.8234 21.3986L13.7743 21.3457L13.6634 19.3488ZM12.8234 19.4016L11.8725 19.3488L11.7616 21.3457L12.7125 21.3986L12.8234 19.4016ZM11.9828 19.3611L11.0438 19.2033L10.7124 21.1757L11.6513 21.3335L11.9828 19.3611ZM11.1522 19.2278L10.237 18.967L9.6889 20.8904L10.6041 21.1512L11.1522 19.2278ZM10.342 19.0034L9.46215 18.6429L8.70394 20.4936L9.58384 20.8541L10.342 19.0034ZM9.5627 18.6908L8.72914 18.2351L7.76984 19.99L8.60339 20.4457L9.5627 18.6908ZM8.82393 18.294L8.0472 17.7489L6.89832 19.386L7.67505 19.9311L8.82393 18.294ZM8.13502 17.8182L7.42488 17.1905L6.10034 18.6891L6.81049 19.3167L8.13502 17.8182ZM7.5046 17.2694L6.86998 16.567L5.386 17.9078L6.02062 18.6102L7.5046 17.2694ZM6.94053 16.6545L6.38941 15.8863L4.76432 17.0521L5.31545 17.8203L6.94053 16.6545ZM6.44982 15.9814L5.98913 15.1569L4.24322 16.1325L4.70391 16.957L6.44982 15.9814ZM6.03856 15.2584L5.67409 14.3882L3.82933 15.1607L4.1938 16.031L6.03856 15.2584ZM5.71181 14.4948L5.44816 13.5896L3.52796 14.1489L3.79161 15.0541L5.71181 14.4948ZM5.47362 13.7L5.31409 12.7713L3.34296 13.1099L3.50249 14.0386L5.47362 13.7ZM5.32692 12.8839L5.27352 11.9434L3.27673 12.0568L3.33013 12.9973L5.32692 12.8839ZM5.27352 12.0568L5.32692 11.1163L3.33013 11.0029L3.27673 11.9434L5.27352 12.0568ZM5.31409 11.2289L5.47362 10.3002L3.50249 9.96162L3.34296 10.8903L5.31409 11.2289ZM5.44816 10.4106L5.71181 9.50541L3.79161 8.9461L3.52796 9.85127L5.44816 10.4106ZM5.67409 9.61204L6.03856 8.74176L4.1938 7.96919L3.82933 8.83947L5.67409 9.61204ZM5.98913 8.84327L6.44982 8.01883L4.70391 7.04323L4.24322 7.86768L5.98913 8.84327ZM6.38941 8.11393L6.94053 7.34568L5.31545 6.17988L4.76432 6.94813L6.38941 8.11393ZM6.86998 7.43319L7.5046 6.73081L6.02062 5.38999L5.386 6.09237L6.86998 7.43319ZM7.42488 6.80967L8.13502 6.18198L6.81049 4.68345L6.10034 5.31113L7.42488 6.80967ZM8.0472 6.25126L8.82393 5.70616L7.67505 4.06907L6.89831 4.61417L8.0472 6.25126ZM8.72914 5.76507L9.5627 5.30942L8.60339 3.5545L7.76984 4.01016L8.72914 5.76507ZM9.46215 5.35731L10.342 4.99683L9.58384 3.14612L8.70394 3.50661L9.46215 5.35731ZM10.237 5.0332L11.1522 4.77242L10.6041 2.84898L9.6889 3.10976L10.237 5.0332ZM11.0438 4.79688L11.9828 4.63909L11.6513 2.66674L10.7124 2.82453L11.0438 4.79688ZM11.8725 4.65138L12.8234 4.59856L12.7125 2.60164L11.7616 2.65445L11.8725 4.65138Z" fill="white"/>
<path d="M8.28821 12.0545L10.567 14.3298C10.9579 14.72 11.5915 14.72 11.9824 14.3298L17.2477 9.07267" stroke="white" stroke-width="2" stroke-linecap="round" stroke-linejoin="round"/>
</svg>
